<mxfile host="" modified="2020-06-15T19:54:54.987Z" agent="5.0 (Windows NT 10.0; Win64; x64) AppleWebKit/537.36 (KHTML, like Gecko) Code/1.45.1 Chrome/78.0.3904.130 Electron/7.2.4 Safari/537.36" etag="422L-nXy52Qjy5AcYF7x" version="13.1.3">
    <diagram id="6hGFLwfOUW9BJ-s0fimq" name="Page-1">
        <mxGraphModel dx="716" dy="510" grid="1" gridSize="10" guides="1" tooltips="1" connect="1" arrows="1" fold="1" page="1" pageScale="1" pageWidth="827" pageHeight="1169" math="0" shadow="0">
            <root>
                <mxCell id="0"/>
                <mxCell id="1" parent="0"/>
                <mxCell id="2" value="Spark Core" style="rounded=0;whiteSpace=wrap;html=1;fontSize=18;" parent="1" vertex="1">
                    <mxGeometry x="180" y="210" width="540" height="90" as="geometry"/>
                </mxCell>
                <mxCell id="3" value="独立调度器" style="rounded=0;whiteSpace=wrap;html=1;fontSize=16;" parent="1" vertex="1">
                    <mxGeometry x="180" y="330" width="220" height="60" as="geometry"/>
                </mxCell>
                <mxCell id="4" value="YARN" style="rounded=0;whiteSpace=wrap;html=1;fontSize=16;" parent="1" vertex="1">
                    <mxGeometry x="430" y="330" width="130" height="60" as="geometry"/>
                </mxCell>
                <mxCell id="5" value="Mesos" style="rounded=0;whiteSpace=wrap;html=1;fontSize=16;" parent="1" vertex="1">
                    <mxGeometry x="590" y="330" width="130" height="60" as="geometry"/>
                </mxCell>
                <mxCell id="6" value="Spark SQL&lt;br&gt;结构化数据" style="rounded=0;whiteSpace=wrap;html=1;fontSize=16;" parent="1" vertex="1">
                    <mxGeometry x="180" y="110" width="120" height="70" as="geometry"/>
                </mxCell>
                <mxCell id="7" value="Spark Streaming&lt;br&gt;实时计算" style="rounded=0;whiteSpace=wrap;html=1;fontSize=16;" parent="1" vertex="1">
                    <mxGeometry x="320" y="110" width="120" height="70" as="geometry"/>
                </mxCell>
                <mxCell id="8" value="Spark MLlib&lt;br&gt;机器学习" style="rounded=0;whiteSpace=wrap;html=1;fontSize=16;" parent="1" vertex="1">
                    <mxGeometry x="460" y="110" width="120" height="70" as="geometry"/>
                </mxCell>
                <mxCell id="9" value="Spark GraphX&lt;br&gt;图计算" style="rounded=0;whiteSpace=wrap;html=1;fontSize=16;" parent="1" vertex="1">
                    <mxGeometry x="600" y="110" width="120" height="70" as="geometry"/>
                </mxCell>
            </root>
        </mxGraphModel>
    </diagram>
</mxfile>